<?xml version="1.0" encoding="utf-8"?>
<!-- Generator: Adobe Illustrator 23.0.5, SVG Export Plug-In . SVG Version: 6.00 Build 0)  -->
<svg version="1.1" id="Layer_1_1_" xmlns="http://www.w3.org/2000/svg" xmlns:xlink="http://www.w3.org/1999/xlink" x="0px" y="0px"
	 viewBox="0 0 512 512" style="enable-background:new 0 0 512 512;" xml:space="preserve">
<style type="text/css">
	.st0{fill:#FFFFFF;}
</style>
<g>
	<path class="st0" d="M432,88c0-17.7-14.3-32-32-32h-8v24c0,8.8-7.2,16-16,16h-16c8.8,0,16-7.2,16-16V32c0-8.8-7.2-16-16-16
		s-16,7.2-16,16v24h-40v24c0,8.8-7.2,16-16,16h-16c8.8,0,16-7.2,16-16V32c0-8.8-7.2-16-16-16s-16,7.2-16,16v24h-48v24
		c0,8.8-7.2,16-16,16h-16c8.8,0,16-7.2,16-16V32c0-8.8-7.2-16-16-16s-16,7.2-16,16v24h-40v24c0,8.8-7.2,16-16,16H88
		c8.8,0,16-7.2,16-16V32c0-8.8-7.2-16-16-16s-16,7.2-16,16v24H48c-17.7,0-32,14.3-32,32v48h416V88z"/>
	<path class="st0" d="M408,320c-48.6,0-88,39.4-88,88s39.4,88,88,88s88-39.4,88-88S456.6,320,408,320z M408,424c-2,0-4-0.4-5.8-1.1
		L373,446.3l-10-12.5l29.2-23.4c-0.1-0.8-0.2-1.6-0.2-2.4c0-5.9,3.2-11,8-13.8V344h16v50.2c4.8,2.8,8,7.9,8,13.8
		C424,416.8,416.8,424,408,424z"/>
	<path class="st0" d="M48,448h264c-5.1-12.3-8-25.8-8-40c0-43.3,26.4-80.3,64-96h-40v-48h48v45.1c10.1-3.3,20.8-5.1,32-5.1
		c8.3,0,16.3,1.1,24,2.9V152H16v264C16,433.7,30.3,448,48,448z M328,176h48v48h-48V176z M240,176h48v48h-48V176z M240,264h48v48h-48
		V264z M240,352h48v48h-48V352z M152,176h48v48h-48V176z M152,264h48v48h-48V264z M152,352h48v48h-48V352z M64,176h48v48H64V176z
		 M64,264h48v48H64V264z M64,352h48v48H64V352z"/>
</g>
</svg>
