<svg xmlns="http://www.w3.org/2000/svg" width="31" height="31" viewBox="0 0 31 31"><defs><style>.a{fill:#151515;}</style></defs><path class="a" d="M212.934,209.967A2.967,2.967,0,1,1,209.967,207,2.967,2.967,0,0,1,212.934,209.967Zm0,0" transform="translate(-194.467 -194.467)"/><path class="a" d="M149.72,137.536a2.947,2.947,0,0,0-1.689-1.689,4.924,4.924,0,0,0-1.652-.306c-.939-.043-1.22-.052-3.6-.052s-2.658.009-3.6.052a4.927,4.927,0,0,0-1.653.307,2.949,2.949,0,0,0-1.689,1.689,4.926,4.926,0,0,0-.306,1.653c-.043.938-.052,1.22-.052,3.6s.009,2.658.052,3.6a4.924,4.924,0,0,0,.306,1.653,2.947,2.947,0,0,0,1.689,1.689,4.918,4.918,0,0,0,1.653.307c.938.043,1.22.052,3.6.052s2.658-.009,3.6-.052a4.918,4.918,0,0,0,1.653-.307,2.947,2.947,0,0,0,1.689-1.689,4.929,4.929,0,0,0,.307-1.653c.043-.939.052-1.22.052-3.6s-.009-2.658-.052-3.6A4.919,4.919,0,0,0,149.72,137.536Zm-6.938,9.82a4.57,4.57,0,1,1,4.57-4.57A4.57,4.57,0,0,1,142.782,147.356Zm4.751-8.253a1.068,1.068,0,1,1,1.068-1.068A1.068,1.068,0,0,1,147.533,139.1Zm0,0" transform="translate(-127.282 -127.285)"/><path class="a" d="M15.5,0A15.5,15.5,0,1,0,31,15.5,15.5,15.5,0,0,0,15.5,0Zm8.847,19.169a6.53,6.53,0,0,1-.414,2.161,4.551,4.551,0,0,1-2.6,2.6,6.535,6.535,0,0,1-2.16.414c-.949.043-1.252.054-3.669.054s-2.72-.01-3.67-.054a6.535,6.535,0,0,1-2.16-.414,4.551,4.551,0,0,1-2.6-2.6,6.528,6.528,0,0,1-.414-2.16C6.61,18.22,6.6,17.917,6.6,15.5s.01-2.72.054-3.669A6.531,6.531,0,0,1,7.067,9.67a4.554,4.554,0,0,1,2.6-2.6,6.536,6.536,0,0,1,2.161-.414C12.78,6.61,13.083,6.6,15.5,6.6s2.72.01,3.669.054a6.537,6.537,0,0,1,2.161.413,4.552,4.552,0,0,1,2.6,2.6,6.529,6.529,0,0,1,.414,2.161c.043.949.053,1.252.053,3.669S24.39,18.22,24.347,19.169Zm0,0"/></svg>