<svg xmlns="http://www.w3.org/2000/svg" width="30.5" height="30.5" viewBox="0 0 30.5 30.5"><defs><style>.a{fill:#151515;}</style></defs><path class="a" d="M224.113,213.753l4.961-2.857-4.961-2.857Zm0,0" transform="translate(-210.763 -195.646)"/><path class="a" d="M15.25,0A15.25,15.25,0,1,0,30.5,15.25,15.252,15.252,0,0,0,15.25,0Zm9.529,15.266a25.169,25.169,0,0,1-.392,4.584,2.388,2.388,0,0,1-1.68,1.68,57.963,57.963,0,0,1-7.457.393s-5.95,0-7.457-.408a2.388,2.388,0,0,1-1.68-1.68,25.059,25.059,0,0,1-.393-4.584,25.153,25.153,0,0,1,.393-4.584,2.436,2.436,0,0,1,1.68-1.7,57.962,57.962,0,0,1,7.457-.393s5.965,0,7.457.408a2.388,2.388,0,0,1,1.68,1.68,23.885,23.885,0,0,1,.392,4.6Zm0,0"/></svg>